<?xml version="1.0" standalone="no"?>
<!DOCTYPE svg PUBLIC "-//W3C//DTD SVG 20010904//EN"
 "http://www.w3.org/TR/2001/REC-SVG-20010904/DTD/svg10.dtd">
<svg version="1.0" xmlns="http://www.w3.org/2000/svg"
 width="2000.000000pt" height="2000.000000pt" viewBox="0 0 2000.000000 2000.000000"
 preserveAspectRatio="xMidYMid meet">
<metadata>
Created by potrace 1.14, written by Peter Selinger 2001-2017
</metadata>
<g transform="translate(0.000000,2000.000000) scale(0.100000,-0.100000)"
fill="#000000" stroke="none">
<path d="M7247 19453 c-9 -3 -15 -8 -12 -12 2 -5 -6 -6 -20 -4 -13 3 -36 -2
-52 -10 -15 -9 -54 -28 -86 -43 -33 -15 -61 -33 -64 -41 -3 -7 -9 -10 -14 -7
-5 3 -9 -1 -9 -8 0 -7 -13 -22 -29 -33 -16 -10 -28 -22 -25 -26 2 -4 -3 -9
-11 -13 -8 -3 -15 -14 -15 -25 0 -10 -6 -21 -13 -24 -7 -3 -19 -23 -27 -46 -7
-23 -19 -46 -27 -52 -7 -6 -13 -29 -13 -50 0 -21 -4 -41 -10 -44 -5 -3 -10
-34 -10 -68 -1 -39 -6 -69 -15 -81 -9 -12 -15 -42 -15 -77 0 -32 -4 -60 -9
-63 -5 -3 -9 -56 -10 -118 -1 -62 -6 -117 -12 -123 -12 -12 -12 -838 0 -851 6
-5 11 -60 12 -122 1 -62 5 -115 10 -118 5 -3 9 -24 9 -48 0 -23 7 -51 15 -62
21 -28 21 -167 -1 -185 -9 -7 -25 -33 -37 -58 -11 -25 -26 -53 -32 -61 -6 -8
-18 -31 -25 -50 -8 -19 -23 -51 -34 -70 -11 -19 -21 -40 -22 -48 -2 -8 -10
-22 -18 -31 -9 -10 -16 -21 -16 -25 0 -5 -15 -40 -34 -80 -18 -39 -39 -90 -46
-114 -8 -23 -19 -47 -27 -53 -7 -6 -13 -18 -13 -27 0 -18 -18 -79 -31 -104 -5
-10 -9 -28 -9 -42 0 -13 -7 -29 -15 -36 -9 -7 -15 -29 -15 -51 0 -21 -4 -41
-10 -44 -5 -3 -10 -26 -10 -49 0 -25 -6 -48 -14 -55 -14 -12 -22 -50 -32 -151
-3 -30 -12 -62 -19 -70 -14 -16 -23 -76 -31 -210 -3 -47 -10 -89 -15 -95 -5
-5 -9 -53 -9 -107 0 -103 -4 -116 -57 -181 -13 -16 -23 -36 -23 -44 0 -9 -10
-30 -23 -47 -13 -17 -30 -47 -37 -66 -8 -19 -29 -63 -47 -96 -18 -34 -33 -73
-33 -87 0 -13 -7 -30 -15 -37 -8 -7 -15 -23 -15 -36 0 -12 -5 -26 -10 -29 -6
-4 -8 -10 -5 -15 2 -4 -4 -19 -15 -33 -13 -17 -20 -40 -20 -70 0 -25 -4 -48
-8 -51 -5 -3 -9 -29 -11 -58 -1 -29 -6 -57 -12 -63 -12 -12 -12 -468 0 -480 6
-6 11 -30 12 -54 2 -24 9 -45 15 -48 7 -3 11 -10 8 -17 -3 -7 2 -19 11 -26 8
-7 15 -25 15 -41 0 -30 16 -74 36 -99 7 -8 19 -36 28 -62 16 -49 20 -58 50
-115 9 -18 15 -33 12 -33 -3 0 3 -15 14 -32 11 -18 27 -46 35 -63 8 -16 14
-26 15 -21 0 16 29 -28 30 -45 0 -9 11 -24 24 -33 13 -8 32 -33 42 -55 10 -22
20 -39 23 -37 9 4 40 -31 34 -38 -4 -3 -1 -6 5 -6 17 0 91 -83 92 -102 0 -9
17 -29 39 -45 21 -15 38 -32 37 -38 -1 -5 9 -11 22 -13 12 -2 28 -12 35 -23 6
-10 15 -19 19 -19 10 0 50 -40 41 -40 -13 -1 41 -40 54 -40 18 0 101 -58 118
-83 8 -12 15 -18 15 -14 0 5 14 0 30 -10 16 -9 30 -20 30 -23 0 -3 17 -14 38
-24 20 -10 44 -22 52 -27 8 -5 26 -14 39 -19 13 -6 41 -24 61 -40 23 -19 50
-30 68 -30 17 0 33 -4 36 -9 3 -5 32 -21 63 -35 32 -15 65 -31 73 -36 32 -20
87 -41 129 -51 25 -5 77 -25 115 -44 189 -89 386 -169 481 -195 17 -4 71 -21
121 -38 51 -17 108 -33 128 -35 47 -5 66 -22 46 -41 -8 -8 -218 -116 -467
-240 l-451 -226 -129 0 c-76 0 -142 -5 -163 -13 -99 -35 -154 -98 -190 -219
-32 -106 -39 -117 -100 -150 -30 -16 -74 -42 -97 -56 -23 -15 -83 -51 -133
-81 -49 -30 -90 -58 -90 -63 0 -4 -6 -8 -12 -8 -7 0 -35 -17 -62 -38 -27 -20
-56 -42 -65 -47 -47 -30 -78 -52 -98 -70 -12 -11 -54 -47 -94 -80 -97 -81
-309 -287 -309 -300 0 -6 -16 -27 -36 -46 -19 -18 -52 -59 -72 -89 -20 -30
-40 -59 -44 -65 -15 -19 -54 -80 -86 -136 -36 -64 -40 -100 -16 -186 9 -32 20
-75 25 -96 9 -37 42 -122 75 -195 18 -39 14 -62 -27 -163 -40 -98 -159 -449
-175 -519 -7 -30 -17 -71 -23 -90 -46 -165 -73 -277 -97 -395 -9 -44 -22 -111
-30 -150 -29 -138 -35 -171 -44 -255 -5 -47 -14 -101 -19 -120 -5 -19 -13 -66
-17 -104 -3 -37 -15 -91 -26 -120 -47 -125 -92 -254 -99 -286 -4 -19 -15 -64
-24 -100 -39 -154 -54 -285 -54 -480 0 -197 11 -285 53 -440 25 -93 32 -113
66 -179 68 -136 101 -161 214 -161 73 0 136 18 136 39 0 4 15 16 34 26 29 16
39 17 61 7 14 -7 36 -12 49 -12 13 0 44 -12 70 -26 26 -14 54 -23 63 -20 22 9
182 -14 215 -30 15 -8 46 -35 70 -60 26 -28 73 -61 120 -85 68 -34 86 -39 147
-39 98 0 150 30 175 101 16 44 18 71 13 193 -5 128 -10 169 -38 276 -10 39
-29 190 -36 293 -6 83 6 106 43 82 100 -66 250 -52 308 28 26 35 34 155 16
225 -25 98 -160 400 -207 465 -45 60 -41 81 36 233 87 171 113 216 157 270 19
22 34 44 34 48 0 12 43 69 95 126 28 30 59 66 70 80 11 14 59 59 106 101 l87
76 58 -15 c68 -18 96 -13 144 23 44 32 205 137 245 159 36 20 33 17 220 138
82 53 169 113 192 133 35 31 46 35 57 25 9 -6 15 -24 15 -38 -1 -15 6 -56 15
-92 19 -77 44 -201 57 -285 4 -33 11 -78 15 -100 5 -35 1 -45 -26 -80 -43 -53
-70 -108 -70 -140 0 -36 29 -122 46 -136 20 -17 17 -55 -12 -134 -14 -38 -38
-106 -54 -150 -16 -44 -45 -123 -65 -175 -80 -210 -83 -235 -33 -287 32 -33
32 -33 15 -65 -9 -18 -28 -51 -42 -73 -13 -22 -35 -57 -47 -79 -48 -81 -77
-125 -116 -174 -23 -29 -58 -55 -112 -82 -223 -112 -512 -361 -708 -611 -23
-30 -64 -81 -91 -114 -158 -197 -451 -681 -451 -745 0 -17 61 -145 95 -199 44
-69 52 -80 140 -180 46 -53 46 -54 40 -105 -4 -28 -11 -55 -16 -61 -5 -5 -9
-18 -9 -29 0 -11 -5 -33 -10 -50 -26 -79 -75 -304 -91 -411 -5 -38 -12 -77
-16 -85 -7 -18 -18 -86 -39 -240 -8 -63 -19 -144 -25 -180 -18 -127 -28 -236
-28 -313 -1 -43 -5 -87 -11 -97 -5 -10 -10 -79 -11 -153 -1 -154 -6 -168 -65
-174 -46 -4 -49 -5 -176 -68 -130 -64 -151 -87 -156 -170 -3 -38 0 -71 6 -78
6 -7 16 -42 23 -77 24 -134 26 -122 -27 -173 -26 -26 -51 -47 -55 -47 -4 0
-21 16 -38 35 -42 48 -44 48 -456 -15 -33 -5 -94 -14 -135 -20 -41 -6 -82 -13
-90 -16 -8 -3 -53 -12 -100 -19 -47 -8 -105 -18 -130 -24 -25 -6 -72 -16 -105
-21 -33 -6 -71 -14 -85 -19 -25 -9 -48 -15 -168 -46 -59 -15 -229 -72 -330
-109 -126 -47 -250 -133 -282 -196 -56 -109 11 -197 224 -300 112 -54 341
-135 446 -159 25 -5 63 -15 85 -21 22 -6 74 -18 115 -25 41 -8 98 -19 125 -25
69 -15 199 -39 265 -50 30 -4 102 -16 160 -25 58 -9 134 -21 170 -26 36 -4 81
-11 100 -14 75 -11 222 -27 375 -41 260 -24 338 -32 375 -39 19 -3 116 -10
215 -16 99 -6 241 -15 315 -20 305 -21 501 -29 1014 -40 716 -15 1512 1 2086
40 468 33 584 42 660 51 47 5 159 16 250 25 91 8 199 19 240 25 41 5 95 12
120 14 25 3 66 8 91 11 52 8 46 12 124 -102 47 -68 227 -256 286 -299 23 -16
55 -41 73 -56 18 -15 66 -46 107 -68 41 -23 97 -55 124 -71 59 -33 252 -105
321 -119 27 -5 67 -15 89 -21 83 -22 145 -28 335 -27 186 0 249 5 350 27 25 5
66 14 91 20 25 5 56 14 70 20 13 5 62 24 109 41 137 51 234 106 434 246 74 52
340 349 355 397 2 6 12 24 22 38 20 29 119 223 119 234 0 4 6 21 14 38 26 58
55 151 66 212 6 33 16 85 22 115 15 77 22 444 9 505 -73 360 -139 521 -323
780 -50 71 -247 271 -304 308 -21 15 -69 48 -106 74 -129 93 -324 175 -577
243 -52 14 -246 32 -346 32 -101 0 -303 -19 -350 -32 -225 -65 -226 -65 -375
-131 -83 -37 -194 -101 -226 -130 -11 -11 -24 -16 -27 -12 -4 3 -7 1 -7 -7 0
-10 -3 -10 -15 0 -13 11 -15 10 -9 -6 5 -15 4 -16 -4 -4 -8 11 -2 22 29 51 21
20 39 40 39 45 0 5 30 41 68 81 78 83 162 184 198 237 14 21 40 51 57 68 31
30 130 98 142 98 28 0 245 202 325 304 38 47 143 223 165 276 4 8 23 51 42 94
52 117 113 317 139 456 3 14 10 43 15 65 5 22 14 74 20 115 5 41 14 107 20
145 24 172 30 367 24 751 l-6 401 42 39 c66 62 141 187 191 319 12 33 25 65
29 70 7 11 38 109 63 205 10 36 22 75 27 88 5 13 9 37 9 55 0 18 7 54 15 81 8
27 15 66 15 86 0 20 5 50 10 66 16 46 32 339 32 584 0 221 -16 576 -27 615 -3
11 -13 74 -21 140 -8 66 -19 145 -25 175 -5 30 -14 78 -19 105 -24 134 -40
213 -50 248 -17 57 -5 64 96 66 48 1 96 7 108 14 26 15 380 14 399 -1 6 -6 61
-14 120 -18 59 -4 110 -11 113 -15 3 -5 30 -9 60 -9 53 0 57 2 96 45 22 24 55
53 73 64 l32 19 50 -32 c103 -65 263 -230 263 -272 0 -5 18 -40 40 -78 22 -38
38 -71 35 -74 -3 -3 0 -11 6 -19 6 -7 8 -13 4 -13 -4 0 -1 -7 6 -16 11 -13 31
-125 29 -159 -8 -106 -17 -146 -40 -172 -40 -45 -134 -192 -169 -262 -81 -162
-101 -291 -59 -370 20 -38 172 -193 229 -233 66 -48 79 -64 90 -113 50 -217
97 -301 201 -356 40 -20 129 -26 170 -10 74 29 108 45 108 52 0 4 9 11 21 14
12 4 38 22 58 41 l37 33 175 3 c250 5 332 33 451 155 114 117 141 200 141 433
0 180 -30 361 -78 476 -8 20 -15 46 -15 58 0 12 -4 26 -8 32 -5 5 -17 32 -26
59 -10 28 -21 59 -26 70 -54 124 -50 92 -44 423 5 290 -1 441 -25 617 -28 202
-40 267 -67 360 -8 28 -21 75 -29 105 -28 108 -126 362 -150 390 -7 8 -26 42
-43 76 -99 197 -330 456 -507 567 -33 21 -85 54 -115 73 -30 19 -61 34 -68 34
-8 0 -25 9 -39 20 -14 11 -31 20 -38 20 -7 0 -39 12 -71 26 -74 32 -135 54
-155 54 -29 0 -67 39 -95 98 -15 31 -31 64 -36 72 -5 8 -20 38 -33 66 -33 67
-56 87 -140 118 -38 15 -83 33 -100 41 -55 25 -280 101 -410 139 -49 14 -110
32 -135 40 -25 8 -76 22 -115 30 -38 9 -86 21 -105 26 -19 5 -48 12 -65 15
-90 17 -195 37 -235 46 -25 5 -79 14 -120 19 -106 15 -151 29 -185 61 -16 15
-49 36 -72 48 -23 11 -45 25 -48 31 -10 16 23 60 44 60 10 0 26 9 36 20 10 11
23 20 30 20 17 0 81 65 97 97 10 21 23 29 48 33 25 4 36 11 38 25 2 11 9 27
16 35 7 8 18 29 26 45 17 37 80 105 96 105 10 0 27 38 28 65 1 6 8 15 17 22 8
6 21 30 29 52 7 23 19 46 27 52 7 6 13 21 13 34 0 12 3 25 7 29 4 4 9 19 11
34 2 15 7 31 13 37 5 5 9 28 9 51 0 25 6 47 15 54 10 8 14 28 13 56 0 24 3 49
9 56 6 7 11 58 12 113 2 59 7 105 14 114 17 20 28 199 32 518 3 169 1 274 -5
278 -6 3 -10 55 -10 114 0 84 -3 111 -15 121 -11 9 -15 34 -15 101 0 48 -4 91
-10 94 -5 3 -10 28 -10 54 0 31 -5 53 -15 61 -10 8 -15 31 -15 71 0 32 -4 60
-9 63 -5 3 -11 23 -14 43 -9 62 -19 97 -33 113 -7 9 -14 35 -15 58 -2 24 -7
46 -11 48 -4 3 -8 15 -8 26 0 12 -7 29 -15 38 -8 9 -15 31 -17 49 -1 18 -6 35
-10 37 -4 3 -8 16 -8 28 0 13 -7 29 -15 36 -8 7 -15 23 -15 37 0 13 -7 35 -16
48 -9 14 -13 25 -10 25 3 0 -5 18 -19 40 -14 22 -25 47 -25 55 0 9 -7 18 -15
21 -8 4 -12 10 -9 16 3 5 -1 17 -9 26 -9 9 -17 24 -19 32 -2 8 -13 29 -25 47
-13 17 -23 37 -23 42 0 6 -4 19 -9 29 -33 67 -45 88 -57 98 -7 6 -18 22 -24
35 -5 13 -14 31 -19 39 -4 8 -16 31 -26 50 -10 19 -27 45 -37 56 -11 12 -20
28 -22 37 -1 8 -9 22 -19 31 -33 33 -50 83 -43 128 4 24 9 69 12 100 3 31 12
62 20 69 10 8 14 33 14 80 0 37 4 70 8 73 4 3 9 51 11 108 1 57 7 107 12 112
5 6 9 51 9 102 0 69 4 95 15 104 12 10 15 44 15 191 0 108 4 180 10 184 6 4
10 152 10 412 l0 406 -25 33 c-14 18 -25 45 -25 61 0 15 -7 37 -15 47 -8 10
-12 22 -10 26 3 5 -8 22 -24 39 -15 16 -26 32 -24 35 8 8 -34 26 -43 18 -5 -4
-6 -3 -2 2 11 13 -10 46 -30 46 -9 0 -26 7 -36 15 -10 8 -22 12 -26 10 -5 -3
-10 2 -14 10 -3 9 -18 15 -35 15 -16 0 -33 5 -36 10 -4 6 -67 10 -155 10 -88
0 -151 -4 -155 -10 -3 -5 -19 -10 -34 -10 -16 0 -43 -10 -62 -23 -19 -12 -49
-29 -67 -36 -18 -8 -57 -31 -88 -52 -30 -22 -61 -39 -67 -39 -7 0 -18 -5 -24
-11 -6 -6 -17 -11 -26 -13 -9 -1 -25 -14 -37 -29 -11 -14 -26 -24 -33 -21 -7
2 -24 -7 -37 -21 -13 -14 -31 -25 -40 -25 -9 0 -23 -11 -30 -25 -7 -13 -29
-32 -49 -41 -20 -9 -45 -25 -56 -34 -11 -10 -27 -20 -35 -22 -8 -2 -23 -13
-33 -25 -10 -13 -26 -23 -35 -23 -9 0 -30 -14 -47 -31 -16 -17 -43 -36 -58
-42 -22 -7 -25 -12 -15 -18 10 -7 10 -9 -2 -9 -8 0 -35 -20 -59 -45 -24 -24
-53 -47 -64 -51 -25 -8 -47 -28 -47 -43 0 -6 -3 -10 -7 -9 -5 1 -23 -12 -42
-30 -18 -18 -29 -32 -25 -32 5 0 -6 -10 -23 -21 -18 -12 -30 -26 -26 -32 3 -5
1 -7 -5 -3 -6 3 -13 2 -17 -4 -3 -5 -30 -10 -60 -10 -30 0 -57 5 -60 10 -4 6
-10 8 -14 5 -5 -2 -17 2 -27 10 -10 8 -33 15 -50 15 -17 0 -37 7 -44 15 -7 8
-21 15 -31 15 -19 0 -27 3 -86 34 -17 9 -43 16 -56 16 -14 0 -29 5 -32 10 -4
6 -10 8 -15 5 -4 -2 -19 4 -33 15 -14 11 -40 20 -60 20 -20 0 -38 4 -41 8 -2
4 -24 9 -48 11 -24 1 -47 6 -53 12 -5 5 -36 9 -70 9 -35 0 -66 5 -73 12 -15
15 -114 28 -269 34 -80 4 -115 9 -123 20 -18 21 -566 21 -589 0 -12 -11 -45
-15 -116 -17 -55 -1 -105 -5 -111 -10 -7 -5 -43 -10 -82 -10 -48 -1 -75 -5
-83 -15 -7 -9 -31 -14 -63 -14 -29 0 -56 -4 -62 -9 -5 -6 -28 -11 -52 -12 -24
-2 -46 -7 -48 -11 -3 -4 -20 -8 -38 -8 -18 0 -41 -7 -52 -15 -10 -8 -34 -15
-52 -15 -18 0 -50 -11 -73 -25 -37 -24 -41 -24 -62 -10 -12 8 -17 15 -12 15 5
0 -5 10 -22 23 -16 12 -31 25 -32 30 0 4 -2 6 -3 5 -5 -4 -64 57 -61 63 1 3
-9 12 -22 19 -14 7 -27 22 -31 32 -3 11 -8 17 -11 14 -7 -7 -25 12 -41 45 -18
33 -103 125 -114 122 -4 -2 -7 0 -6 5 3 10 -98 112 -111 112 -6 0 -10 3 -9 8
4 13 -36 52 -53 52 -9 0 -22 7 -29 15 -7 8 -17 12 -23 8 -6 -3 -7 -1 -3 5 4 7
2 12 -3 12 -6 0 -10 3 -9 8 1 4 -12 21 -30 39 -17 17 -32 30 -32 27 0 -2 -8 4
-18 14 -11 9 -17 20 -15 24 1 3 -10 11 -26 16 -16 6 -47 28 -68 49 -35 36 -93
79 -93 69 0 -2 -14 9 -31 25 -17 16 -35 27 -39 24 -4 -3 -10 2 -14 10 -3 8
-17 15 -31 15 -14 0 -37 7 -50 16 -13 9 -30 12 -36 8 -7 -4 -9 -3 -5 4 3 6 -5
13 -21 16 -32 6 -320 5 -346 -1z m1323 -7133 l25 -8 -25 -1 c-14 0 -32 4 -40
9 -13 9 -13 10 0 9 8 -1 26 -5 40 -9z m131 -15 c126 -8 139 -11 160 -32 20
-19 20 -19 -28 -12 -26 5 -70 13 -98 19 -27 6 -67 14 -88 17 -20 3 -40 10 -44
16 -3 5 -2 7 4 4 5 -3 47 -8 94 -12z m1750 -39 c-12 -15 -34 -18 -246 -36 -71
-6 -144 -15 -161 -21 -35 -10 -730 -11 -757 0 -10 4 71 7 180 8 372 3 398 3
443 2 25 -1 82 8 126 19 63 17 112 22 210 22 71 0 143 4 159 9 47 14 60 14 46
-3z m-1293 -43 c-10 -2 -26 -2 -35 0 -10 3 -2 5 17 5 19 0 27 -2 18 -5z
m-3295 -2247 c-17 -31 -26 -36 -39 -25 -17 14 -18 41 -2 57 9 9 16 8 30 -4 9
-9 15 -22 11 -28z m4712 -4688 c40 -58 65 -100 65 -111 0 -13 -60 -166 -95
-242 -13 -27 -33 -75 -46 -105 -31 -78 -56 -134 -139 -310 -137 -294 -195
-413 -216 -446 -12 -17 -25 -43 -29 -55 -15 -47 -96 -136 -242 -266 -35 -32
-75 -65 -88 -73 -12 -8 -38 -27 -57 -42 -50 -40 -249 -158 -266 -158 -14 0
-76 -25 -182 -72 -118 -52 -233 -159 -281 -262 -24 -51 -29 -74 -29 -139 0
-43 6 -92 14 -111 12 -30 12 -34 -6 -45 -27 -17 -1064 -16 -1085 0 -20 17 -16
42 13 84 14 20 48 83 77 138 29 55 57 107 62 116 6 9 21 34 33 56 13 22 34 58
47 80 13 22 31 54 41 70 62 108 325 479 422 595 82 99 121 142 170 193 l56 59
90 -7 c50 -4 99 -11 108 -16 9 -5 28 -9 42 -9 14 0 36 -5 50 -12 35 -15 97 13
136 61 16 20 54 65 85 101 31 36 83 97 116 135 106 123 285 324 343 385 24 25
47 52 52 61 5 10 32 43 61 75 29 33 65 75 81 94 23 26 45 39 93 53 35 10 152
47 259 82 107 35 203 64 212 64 9 1 24 -9 33 -21z"/>
</g>
</svg>
